<mxfile host="app.diagrams.net" agent="Mozilla/5.0 (Windows NT 10.0; Win64; x64) AppleWebKit/537.36 (KHTML, like Gecko) Chrome/126.0.0.0 Safari/537.36 OPR/112.0.0.0 (Edition 360-1)" version="24.7.12">
  <diagram id="C5RBs43oDa-KdzZeNtuy" name="Page-1">
    <mxGraphModel grid="0" page="1" gridSize="10" guides="1" tooltips="1" connect="1" arrows="0" fold="1" pageScale="1" pageWidth="827" pageHeight="1169" math="0" shadow="0">
      <root>
        <mxCell id="WIyWlLk6GJQsqaUBKTNV-0" />
        <mxCell id="WIyWlLk6GJQsqaUBKTNV-1" parent="WIyWlLk6GJQsqaUBKTNV-0" />
        <mxCell id="WIRA3j2eglu7Y-BGLr3H-0" value="LOGIN" style="swimlane;childLayout=stackLayout;resizeParent=1;resizeParentMax=0;startSize=20;horizontal=0;horizontalStack=1;fillColor=none;" vertex="1" parent="WIyWlLk6GJQsqaUBKTNV-1">
          <mxGeometry x="144" y="14" width="540" height="476" as="geometry" />
        </mxCell>
        <mxCell id="WIRA3j2eglu7Y-BGLr3H-1" value="Cliente" style="swimlane;startSize=20;fillColor=none;" vertex="1" parent="WIRA3j2eglu7Y-BGLr3H-0">
          <mxGeometry x="20" width="174" height="476" as="geometry">
            <mxRectangle x="20" width="32" height="476" as="alternateBounds" />
          </mxGeometry>
        </mxCell>
        <mxCell id="WIyWlLk6GJQsqaUBKTNV-7" value="&lt;b&gt;Digitar credenciales&lt;/b&gt;" style="rounded=1;whiteSpace=wrap;html=1;fontSize=12;glass=0;strokeWidth=1;shadow=0;fillColor=none;" vertex="1" parent="WIRA3j2eglu7Y-BGLr3H-1">
          <mxGeometry x="26" y="166" width="116" height="40" as="geometry" />
        </mxCell>
        <mxCell id="COzQE3Rr687vu3a0ivh8-19" style="edgeStyle=orthogonalEdgeStyle;rounded=0;orthogonalLoop=1;jettySize=auto;html=1;exitX=0;exitY=0.5;exitDx=0;exitDy=0;" edge="1" parent="WIRA3j2eglu7Y-BGLr3H-1" source="COzQE3Rr687vu3a0ivh8-3">
          <mxGeometry relative="1" as="geometry">
            <mxPoint x="250" y="65" as="targetPoint" />
            <Array as="points">
              <mxPoint x="9" y="253" />
              <mxPoint x="9" y="65" />
            </Array>
          </mxGeometry>
        </mxCell>
        <mxCell id="COzQE3Rr687vu3a0ivh8-3" value="&lt;b&gt;Recibir error de credenciales&lt;/b&gt;" style="rounded=1;whiteSpace=wrap;html=1;fontSize=12;glass=0;strokeWidth=1;shadow=0;fillColor=none;" vertex="1" parent="WIRA3j2eglu7Y-BGLr3H-1">
          <mxGeometry x="24" y="233" width="120" height="40" as="geometry" />
        </mxCell>
        <mxCell id="COzQE3Rr687vu3a0ivh8-13" value="" style="ellipse;html=1;shape=endState;fillColor=#000000;strokeColor=#000000;" vertex="1" parent="WIRA3j2eglu7Y-BGLr3H-1">
          <mxGeometry x="69" y="426" width="30" height="30" as="geometry" />
        </mxCell>
        <mxCell id="COzQE3Rr687vu3a0ivh8-22" style="edgeStyle=orthogonalEdgeStyle;rounded=0;orthogonalLoop=1;jettySize=auto;html=1;exitX=0.5;exitY=1;exitDx=0;exitDy=0;entryX=0.5;entryY=0;entryDx=0;entryDy=0;" edge="1" parent="WIRA3j2eglu7Y-BGLr3H-1" source="COzQE3Rr687vu3a0ivh8-21" target="COzQE3Rr687vu3a0ivh8-13">
          <mxGeometry relative="1" as="geometry" />
        </mxCell>
        <mxCell id="COzQE3Rr687vu3a0ivh8-21" value="&lt;b&gt;Obtener pagina principal&lt;/b&gt;" style="rounded=1;whiteSpace=wrap;html=1;fontSize=12;glass=0;strokeWidth=1;shadow=0;fillColor=none;" vertex="1" parent="WIRA3j2eglu7Y-BGLr3H-1">
          <mxGeometry x="24" y="337" width="120" height="40" as="geometry" />
        </mxCell>
        <mxCell id="WIRA3j2eglu7Y-BGLr3H-2" value="Aplicativo" style="swimlane;startSize=20;fillColor=none;" vertex="1" parent="WIRA3j2eglu7Y-BGLr3H-0">
          <mxGeometry x="194" width="172" height="476" as="geometry">
            <mxRectangle x="52" width="32" height="476" as="alternateBounds" />
          </mxGeometry>
        </mxCell>
        <mxCell id="COzQE3Rr687vu3a0ivh8-0" value="" style="ellipse;html=1;shape=startState;fillColor=#000000;strokeColor=#121212;strokeWidth=2;" vertex="1" parent="WIRA3j2eglu7Y-BGLr3H-2">
          <mxGeometry x="68.5" y="30" width="30" height="30" as="geometry" />
        </mxCell>
        <mxCell id="WIyWlLk6GJQsqaUBKTNV-3" value="&lt;b&gt;Solicitar credenciales&lt;/b&gt;" style="rounded=1;whiteSpace=wrap;html=1;fontSize=12;glass=0;strokeWidth=1;shadow=0;fillColor=none;" vertex="1" parent="WIRA3j2eglu7Y-BGLr3H-2">
          <mxGeometry x="23.5" y="91" width="120" height="40" as="geometry" />
        </mxCell>
        <mxCell id="COzQE3Rr687vu3a0ivh8-1" value="" style="edgeStyle=orthogonalEdgeStyle;html=1;verticalAlign=bottom;endArrow=open;endSize=8;strokeColor=#121212;rounded=0;strokeWidth=2;entryX=0.5;entryY=0;entryDx=0;entryDy=0;" edge="1" parent="WIRA3j2eglu7Y-BGLr3H-2" target="WIyWlLk6GJQsqaUBKTNV-3">
          <mxGeometry relative="1" as="geometry">
            <mxPoint x="83.5" y="136" as="targetPoint" />
            <mxPoint x="83.5" y="51" as="sourcePoint" />
            <Array as="points">
              <mxPoint x="83.5" y="83" />
            </Array>
          </mxGeometry>
        </mxCell>
        <mxCell id="WIyWlLk6GJQsqaUBKTNV-11" value="&lt;b&gt;Notificar error&lt;/b&gt;" style="rounded=1;whiteSpace=wrap;html=1;fontSize=12;glass=0;strokeWidth=1;shadow=0;fillColor=none;" vertex="1" parent="WIRA3j2eglu7Y-BGLr3H-2">
          <mxGeometry x="23.5" y="233" width="120" height="40" as="geometry" />
        </mxCell>
        <mxCell id="COzQE3Rr687vu3a0ivh8-14" value="&lt;b&gt;Solicitar validacion de credenciales&lt;/b&gt;" style="rounded=1;whiteSpace=wrap;html=1;fontSize=12;glass=0;strokeWidth=1;shadow=0;fillColor=none;" vertex="1" parent="WIRA3j2eglu7Y-BGLr3H-2">
          <mxGeometry x="23.5" y="166" width="120" height="40" as="geometry" />
        </mxCell>
        <mxCell id="COzQE3Rr687vu3a0ivh8-18" value="&lt;b&gt;Retornar pagina principal&lt;/b&gt;" style="rounded=1;whiteSpace=wrap;html=1;fontSize=12;glass=0;strokeWidth=1;shadow=0;fillColor=none;" vertex="1" parent="WIRA3j2eglu7Y-BGLr3H-2">
          <mxGeometry x="26" y="337" width="120" height="40" as="geometry" />
        </mxCell>
        <mxCell id="WIyWlLk6GJQsqaUBKTNV-2" value="" style="rounded=0;html=1;jettySize=auto;orthogonalLoop=1;fontSize=11;endArrow=block;endFill=0;endSize=8;strokeWidth=1;shadow=0;labelBackgroundColor=none;edgeStyle=orthogonalEdgeStyle;entryX=0.5;entryY=0;entryDx=0;entryDy=0;" edge="1" parent="WIRA3j2eglu7Y-BGLr3H-0" source="WIyWlLk6GJQsqaUBKTNV-3" target="WIyWlLk6GJQsqaUBKTNV-7">
          <mxGeometry relative="1" as="geometry">
            <mxPoint x="104" y="160" as="targetPoint" />
          </mxGeometry>
        </mxCell>
        <mxCell id="COzQE3Rr687vu3a0ivh8-2" style="edgeStyle=orthogonalEdgeStyle;rounded=0;orthogonalLoop=1;jettySize=auto;html=1;exitX=1;exitY=0.5;exitDx=0;exitDy=0;entryX=0;entryY=0.5;entryDx=0;entryDy=0;" edge="1" parent="WIRA3j2eglu7Y-BGLr3H-0" source="WIyWlLk6GJQsqaUBKTNV-7" target="COzQE3Rr687vu3a0ivh8-14">
          <mxGeometry relative="1" as="geometry">
            <mxPoint x="243" y="169" as="targetPoint" />
          </mxGeometry>
        </mxCell>
        <mxCell id="COzQE3Rr687vu3a0ivh8-4" style="edgeStyle=orthogonalEdgeStyle;rounded=0;orthogonalLoop=1;jettySize=auto;html=1;exitX=0;exitY=0.5;exitDx=0;exitDy=0;entryX=1;entryY=0.5;entryDx=0;entryDy=0;" edge="1" parent="WIRA3j2eglu7Y-BGLr3H-0" source="WIyWlLk6GJQsqaUBKTNV-11" target="COzQE3Rr687vu3a0ivh8-3">
          <mxGeometry relative="1" as="geometry" />
        </mxCell>
        <mxCell id="WIRA3j2eglu7Y-BGLr3H-3" value="Base De Datos" style="swimlane;startSize=20;fillColor=none;" vertex="1" parent="WIRA3j2eglu7Y-BGLr3H-0">
          <mxGeometry x="366" width="174" height="476" as="geometry" />
        </mxCell>
        <mxCell id="COzQE3Rr687vu3a0ivh8-7" value="&lt;b&gt;Retornar Cliente&lt;/b&gt;" style="rounded=1;whiteSpace=wrap;html=1;fontSize=12;glass=0;strokeWidth=1;shadow=0;fillColor=none;" vertex="1" parent="WIRA3j2eglu7Y-BGLr3H-3">
          <mxGeometry x="27" y="337" width="120" height="40" as="geometry" />
        </mxCell>
        <mxCell id="COzQE3Rr687vu3a0ivh8-16" style="edgeStyle=orthogonalEdgeStyle;rounded=0;orthogonalLoop=1;jettySize=auto;html=1;exitX=0.5;exitY=1;exitDx=0;exitDy=0;" edge="1" parent="WIRA3j2eglu7Y-BGLr3H-3" source="COzQE3Rr687vu3a0ivh8-9" target="COzQE3Rr687vu3a0ivh8-7">
          <mxGeometry relative="1" as="geometry" />
        </mxCell>
        <mxCell id="COzQE3Rr687vu3a0ivh8-9" value="&lt;b&gt;Validar credenciales&lt;/b&gt;" style="rhombus;whiteSpace=wrap;html=1;fillColor=none;" vertex="1" parent="WIRA3j2eglu7Y-BGLr3H-3">
          <mxGeometry x="49.5" y="206" width="101" height="94" as="geometry" />
        </mxCell>
        <mxCell id="COzQE3Rr687vu3a0ivh8-10" value="Existe" style="text;html=1;align=center;verticalAlign=middle;resizable=0;points=[];autosize=1;strokeColor=none;fillColor=none;" vertex="1" parent="WIRA3j2eglu7Y-BGLr3H-3">
          <mxGeometry x="94" y="296" width="51" height="26" as="geometry" />
        </mxCell>
        <mxCell id="COzQE3Rr687vu3a0ivh8-12" value="No existe" style="text;html=1;align=center;verticalAlign=middle;resizable=0;points=[];autosize=1;strokeColor=none;fillColor=none;" vertex="1" parent="WIRA3j2eglu7Y-BGLr3H-3">
          <mxGeometry x="-7" y="229" width="68" height="26" as="geometry" />
        </mxCell>
        <mxCell id="COzQE3Rr687vu3a0ivh8-11" style="edgeStyle=orthogonalEdgeStyle;rounded=0;orthogonalLoop=1;jettySize=auto;html=1;exitX=0;exitY=0.5;exitDx=0;exitDy=0;entryX=1;entryY=0.5;entryDx=0;entryDy=0;" edge="1" parent="WIRA3j2eglu7Y-BGLr3H-0" source="COzQE3Rr687vu3a0ivh8-9" target="WIyWlLk6GJQsqaUBKTNV-11">
          <mxGeometry relative="1" as="geometry" />
        </mxCell>
        <mxCell id="COzQE3Rr687vu3a0ivh8-15" style="edgeStyle=orthogonalEdgeStyle;rounded=0;orthogonalLoop=1;jettySize=auto;html=1;exitX=1;exitY=0.5;exitDx=0;exitDy=0;entryX=0.5;entryY=0;entryDx=0;entryDy=0;" edge="1" parent="WIRA3j2eglu7Y-BGLr3H-0" source="COzQE3Rr687vu3a0ivh8-14" target="COzQE3Rr687vu3a0ivh8-9">
          <mxGeometry relative="1" as="geometry" />
        </mxCell>
        <mxCell id="COzQE3Rr687vu3a0ivh8-17" style="edgeStyle=orthogonalEdgeStyle;rounded=0;orthogonalLoop=1;jettySize=auto;html=1;exitX=0;exitY=0.5;exitDx=0;exitDy=0;entryX=1;entryY=0.5;entryDx=0;entryDy=0;" edge="1" parent="WIRA3j2eglu7Y-BGLr3H-0" source="COzQE3Rr687vu3a0ivh8-7" target="COzQE3Rr687vu3a0ivh8-18">
          <mxGeometry relative="1" as="geometry">
            <mxPoint x="331" y="383" as="targetPoint" />
          </mxGeometry>
        </mxCell>
        <mxCell id="COzQE3Rr687vu3a0ivh8-20" style="edgeStyle=orthogonalEdgeStyle;rounded=0;orthogonalLoop=1;jettySize=auto;html=1;exitX=0;exitY=0.5;exitDx=0;exitDy=0;entryX=1;entryY=0.5;entryDx=0;entryDy=0;" edge="1" parent="WIRA3j2eglu7Y-BGLr3H-0" source="COzQE3Rr687vu3a0ivh8-18" target="COzQE3Rr687vu3a0ivh8-21">
          <mxGeometry relative="1" as="geometry">
            <mxPoint x="126.80001831054688" y="383" as="targetPoint" />
          </mxGeometry>
        </mxCell>
      </root>
    </mxGraphModel>
  </diagram>
</mxfile>
